<svg width="390" height="499" viewBox="0 0 390 499" fill="none" xmlns="http://www.w3.org/2000/svg">
<g clip-path="url(#clip0_9501_1256)">
<rect width="1440" height="499" transform="translate(-525)" fill="black"/>
<path d="M368.243 16.39L360.354 52.6099H375.344L368.243 16.39Z" fill="#666666"/>
<path d="M368.243 446.39L360.354 482.61H375.344L368.243 446.39Z" fill="#666666"/>
<path d="M368.243 246.749L360.354 273.471H375.344L368.243 246.749Z" fill="#666666"/>
<path d="M378.704 235.468H357V241.643H378.704V235.468Z" fill="#666666"/>
<path d="M378.704 219.807H357V230.356H378.704V219.807Z" fill="#666666"/>
<path d="M21.0513 484.462L21.1668 492.931L30.9812 492.735L31.1118 484.261L21.0513 484.462Z" fill="#666666"/>
<path d="M20.8604 470.479L20.9759 478.947L31.1921 478.746L31.3227 470.273L20.8604 470.479Z" fill="#666666"/>
<path d="M20.6694 456.501L20.785 464.969L31.403 464.758L31.5336 456.285L20.6694 456.501Z" fill="#666666"/>
<path d="M20.4785 442.517L20.594 450.986L31.6139 450.77L31.7395 442.296L20.4785 442.517Z" fill="#666666"/>
<path d="M19.9412 412.923L20.0366 421.392L31.8652 421.191L32.0058 412.717L19.9412 412.923Z" fill="#666666"/>
<path d="M19.7754 398.99L19.8758 407.458L32.1012 407.253L32.2469 398.779L19.7754 398.99Z" fill="#666666"/>
<path d="M19.4941 385.198L19.5946 393.666L32.2218 393.455L32.3674 384.982L19.4941 385.198Z" fill="#666666"/>
<path d="M19.3335 371.219L19.434 379.688L32.463 379.467L32.6086 370.993L19.3335 371.219Z" fill="#666666"/>
<path d="M19.1726 357.236L19.268 365.704L32.6989 365.478L32.8445 357.005L19.1726 357.236Z" fill="#666666"/>
<path d="M18.9465 342.781L19.1324 351.249L32.96 350.817L33.0203 342.344L18.9465 342.781Z" fill="#666666"/>
<path d="M18.9265 328.948L19.1073 337.416L33.3368 336.969L33.397 328.496L18.9265 328.948Z" fill="#666666"/>
<path d="M33.3919 314.527L18.8611 314.382L18.8008 322.85L33.3316 323.001L33.3919 314.527Z" fill="#666666"/>
<path d="M33.5779 300.64L19.0521 300.218L18.8813 308.686L33.4071 309.108L33.5779 300.64Z" fill="#666666"/>
<path d="M30.7399 202.691L16.2141 203.143L16.3949 211.612L30.9207 211.16L30.7399 202.691Z" fill="#666666"/>
<path d="M30.4386 188.713L15.9128 189.165L16.0987 197.633L30.6194 197.181L30.4386 188.713Z" fill="#666666"/>
<path d="M28.6306 104.843L14.1099 105.3L14.2907 113.764L28.8165 113.312L28.6306 104.843Z" fill="#666666"/>
<path d="M28.3291 90.8647L13.8083 91.3218L13.9892 99.7851L28.515 99.3331L28.3291 90.8647Z" fill="#666666"/>
<path d="M28.0276 76.8865L13.5068 77.3435L13.6877 85.8119L28.2134 85.3548L28.0276 76.8865Z" fill="#666666"/>
<path d="M27.7313 62.9131L13.2056 63.3651L13.3864 71.8335L27.9122 71.3764L27.7313 62.9131Z" fill="#666666"/>
<path d="M27.4301 48.9351L12.9043 49.3871L13.0851 57.8555L27.6109 57.3984L27.4301 48.9351Z" fill="#666666"/>
<path d="M26.8273 20.978L12.3015 21.4301L12.4823 29.8984L27.0081 29.4414L26.8273 20.978Z" fill="#666666"/>
<path d="M26.5258 7L12 7.45205L12.1808 15.9204L26.7066 15.4684L26.5258 7Z" fill="#666666"/>
<rect x="43.5" y="106.5" width="302" height="287" rx="19.5" stroke="#666666"/>
<rect x="43.5" y="-201.5" width="302" height="287" rx="19.5" stroke="#666666"/>
<rect x="43.5" y="414.5" width="302" height="287" rx="19.5" stroke="#666666"/>
<path d="M279.5 394.5C279.5 398.94 277.206 403.223 272.941 407.173C268.676 411.124 262.477 414.705 254.775 417.723C239.374 423.757 218.064 427.5 194.5 427.5C170.936 427.5 149.626 423.757 134.225 417.723C126.523 414.705 120.324 411.124 116.059 407.173C111.794 403.223 109.5 398.94 109.5 394.5C109.5 390.06 111.794 385.777 116.059 381.827C120.324 377.876 126.523 374.295 134.225 371.277C149.626 365.243 170.936 361.5 194.5 361.5C218.064 361.5 239.374 365.243 254.775 371.277C262.477 374.295 268.676 377.876 272.941 381.827C277.206 385.777 279.5 390.06 279.5 394.5Z" fill="black" stroke="#666666"/>
<path d="M127 394.5L136.429 397.964L136.429 391.036L127 394.5Z" fill="#D9D9D9"/>
<path d="M261.143 394.5L251.714 397.964L251.714 391.036L261.143 394.5Z" fill="#D9D9D9"/>
</g>
<defs>
<clipPath id="clip0_9501_1256">
<rect width="1440" height="499" fill="white" transform="translate(-525)"/>
</clipPath>
</defs>
</svg>
